<svg width="640" height="420" viewBox="0 0 640 420" xmlns="http://www.w3.org/2000/svg" role="img" aria-labelledby="title desc">
  <title id="title">Llavero en resina</title>
  <desc id="desc">Ilustracion vectorial de llavero de resina con decoracion</desc>
  <defs>
    <linearGradient id="rg" x1="0" y1="0" x2="1" y2="1">
      <stop offset="0%" stop-color="#b7ece6"/>
      <stop offset="100%" stop-color="#58c9bf"/>
    </linearGradient>
  </defs>
  <rect width="640" height="420" rx="28" fill="#f3eee8"/>
  <circle cx="180" cy="160" r="52" fill="none" stroke="#15222a" stroke-width="14"/>
  <rect x="212" y="144" width="72" height="32" rx="16" fill="#15222a"/>
  <path d="M320 80c68 0 122 54 122 122s-54 122-122 122-122-54-122-122 54-122 122-122z" fill="url(#rg)" stroke="#0f766e" stroke-width="8"/>
  <path d="M300 150c12-22 44-18 52 3 7-16 28-22 44-7 18 17 11 45-8 60l-44 35-44-35c-18-14-24-35-12-56 8-15 27-20 42-12z" fill="#ffffff" opacity="0.9"/>
  <circle cx="280" cy="250" r="8" fill="#ffffff"/>
  <circle cx="360" cy="118" r="6" fill="#ffffff"/>
  <circle cx="392" cy="250" r="7" fill="#ffffff"/>
</svg>
